<?xml version="1.0" encoding="UTF-8" standalone="no"?>
<!-- Created with Inkscape (http://www.inkscape.org/) -->
<svg
   xmlns:dc="http://purl.org/dc/elements/1.1/"
   xmlns:cc="http://web.resource.org/cc/"
   xmlns:rdf="http://www.w3.org/1999/02/22-rdf-syntax-ns#"
   xmlns:svg="http://www.w3.org/2000/svg"
   xmlns="http://www.w3.org/2000/svg"
   xmlns:sodipodi="http://sodipodi.sourceforge.net/DTD/sodipodi-0.dtd"
   xmlns:inkscape="http://www.inkscape.org/namespaces/inkscape"
   width="625.31085"
   height="200"
   id="svg2"
   sodipodi:version="0.32"
   inkscape:version="0.44.1"
   version="1.0"
   sodipodi:docbase="/home/lok/pygameLesson/seaWar-2/data"
   sodipodi:docname="people.svg"
   inkscape:export-filename="/home/lok/pygameLesson/seaWar-2/data/people.png"
   inkscape:export-xdpi="57.599998"
   inkscape:export-ydpi="57.599998">
  <defs
     id="defs4" />
  <sodipodi:namedview
     id="base"
     pagecolor="#ffffff"
     bordercolor="#666666"
     borderopacity="1.0"
     gridtolerance="10000"
     guidetolerance="10"
     objecttolerance="10"
     inkscape:pageopacity="0.0"
     inkscape:pageshadow="2"
     inkscape:zoom="0.35"
     inkscape:cx="375"
     inkscape:cy="404.28571"
     inkscape:document-units="px"
     inkscape:current-layer="layer1"
     inkscape:window-width="782"
     inkscape:window-height="613"
     inkscape:window-x="115"
     inkscape:window-y="50" />
  <metadata
     id="metadata7">
    <rdf:RDF>
      <cc:Work
         rdf:about="">
        <dc:format>image/svg+xml</dc:format>
        <dc:type
           rdf:resource="http://purl.org/dc/dcmitype/StillImage" />
      </cc:Work>
    </rdf:RDF>
  </metadata>
  <g
     inkscape:label="Layer 1"
     inkscape:groupmode="layer"
     id="layer1"
     transform="translate(-54.68917,-97.67212)">
    <g
       id="g1893"
       inkscape:export-filename="/home/lok/pygameLesson/seaWar-2/data/people1.png"
       inkscape:export-xdpi="13.5"
       inkscape:export-ydpi="13.5">
      <path
         id="rect1872"
         d="M 109.77938,157.9473 C 81.499124,157.9473 58.551194,167.97294 58.551204,180.32595 C 58.551204,187.84678 67.072084,194.48539 80.110104,198.54355 L 80.110104,293.81009 L 139.44863,293.81009 L 139.44863,198.54355 C 152.48666,194.48539 161.00752,187.84678 161.00752,180.32595 L 161.00752,180.29098 C 160.97479,167.94708 138.03879,157.9473 109.77938,157.9473 z "
         style="fill:navy;fill-opacity:1;stroke:black;stroke-width:7.72407103;stroke-miterlimit:4;stroke-dasharray:none;stroke-opacity:1" />
      <path
         id="path1877"
         d="M 152.04737,101.83607 C 123.93434,101.83607 101.12216,113.55982 101.12217,128.00514 C 101.12217,136.79982 109.59266,144.56286 122.55356,149.30838 L 122.55356,260.71082 L 181.54117,260.71082 L 181.54117,149.30838 C 194.50209,144.56286 202.97258,136.79982 202.97258,128.00514 L 202.97258,127.96424 C 202.94005,113.52958 180.13967,101.83607 152.04737,101.83607 z "
         style="fill:red;fill-opacity:1;stroke:black;stroke-width:8.32789898;stroke-miterlimit:4;stroke-dasharray:none;stroke-opacity:1" />
      <path
         id="path1879"
         d="M 199.59886,156.5989 C 171.29914,156.5989 148.33547,166.43609 148.33547,178.5569 C 148.33547,185.93636 156.86218,192.45019 169.90918,196.43208 L 169.90918,289.90797 L 229.28857,289.90797 L 229.28857,196.43208 C 242.33558,192.45019 250.86228,185.93636 250.86228,178.5569 L 250.86228,178.52258 C 250.82956,166.4107 227.87776,156.5989 199.59886,156.5989 z "
         style="fill:green;fill-opacity:1;stroke:black;stroke-width:7.65376854;stroke-miterlimit:4;stroke-dasharray:none;stroke-opacity:1" />
    </g>
    <g
       id="g1898"
       transform="translate(0,2.4528)"
       inkscape:export-filename="/home/lok/pygameLesson/seaWar-2/data/people2.png"
       inkscape:export-xdpi="13.5"
       inkscape:export-ydpi="13.5">
      <path
         id="path1881"
         d="M 329.37593,155.4945 C 301.09567,155.4945 278.14774,165.52014 278.14775,177.87315 C 278.14775,185.39398 286.66863,192.03259 299.70665,196.09075 L 299.70665,291.35729 L 359.04518,291.35729 L 359.04518,196.09075 C 372.08321,192.03259 380.60407,185.39398 380.60407,177.87315 L 380.60407,177.83818 C 380.57134,165.49428 357.63534,155.4945 329.37593,155.4945 z "
         style="fill:yellow;fill-opacity:1;stroke:black;stroke-width:7.72407103;stroke-miterlimit:4;stroke-dasharray:none;stroke-opacity:1" />
      <path
         id="path1883"
         d="M 371.64392,99.383272 C 343.53089,99.383272 320.71871,111.10702 320.71872,125.55234 C 320.71872,134.34702 329.18921,142.11006 342.15011,146.85558 L 342.15011,258.25802 L 401.13772,258.25802 L 401.13772,146.85558 C 414.09864,142.11006 422.56913,134.34702 422.56913,125.55234 L 422.56913,125.51144 C 422.5366,111.07678 399.73622,99.383272 371.64392,99.383272 z "
         style="fill:aqua;fill-opacity:1;stroke:black;stroke-width:8.32789898;stroke-miterlimit:4;stroke-dasharray:none;stroke-opacity:1" />
      <path
         id="path1885"
         d="M 419.19541,154.1461 C 390.89569,154.1461 367.93202,163.98329 367.93202,176.1041 C 367.93202,183.48356 376.45873,189.99739 389.50573,193.97928 L 389.50573,287.45517 L 448.88512,287.45517 L 448.88512,193.97928 C 461.93213,189.99739 470.45883,183.48356 470.45883,176.1041 L 470.45883,176.06978 C 470.42611,163.9579 447.47431,154.1461 419.19541,154.1461 z "
         style="fill:lime;fill-opacity:1;stroke:black;stroke-width:7.65376854;stroke-miterlimit:4;stroke-dasharray:none;stroke-opacity:1" />
    </g>
    <g
       id="g1903"
       transform="translate(0,2.4528)"
       inkscape:export-filename="/home/lok/pygameLesson/seaWar-2/data/people3.png"
       inkscape:export-xdpi="13.5"
       inkscape:export-ydpi="13.5">
      <path
         id="path1887"
         d="M 535.09022,155.4945 C 506.80996,155.4945 483.86203,165.52014 483.86204,177.87315 C 483.86204,185.39398 492.38292,192.03259 505.42094,196.09075 L 505.42094,291.35729 L 564.75947,291.35729 L 564.75947,196.09075 C 577.7975,192.03259 586.31836,185.39398 586.31836,177.87315 L 586.31836,177.83818 C 586.28563,165.49428 563.34963,155.4945 535.09022,155.4945 z "
         style="fill:maroon;fill-opacity:1;stroke:black;stroke-width:7.72407103;stroke-miterlimit:4;stroke-dasharray:none;stroke-opacity:1" />
      <path
         id="path1889"
         d="M 577.35821,99.383272 C 549.24518,99.383272 526.433,111.10702 526.43301,125.55234 C 526.43301,134.34702 534.9035,142.11006 547.8644,146.85558 L 547.8644,258.25802 L 606.85201,258.25802 L 606.85201,146.85558 C 619.81293,142.11006 628.28342,134.34702 628.28342,125.55234 L 628.28342,125.51144 C 628.25089,111.07678 605.45051,99.383272 577.35821,99.383272 z "
         style="fill:fuchsia;fill-opacity:1;stroke:black;stroke-width:8.32789898;stroke-miterlimit:4;stroke-dasharray:none;stroke-opacity:1" />
      <path
         id="path1891"
         d="M 624.9097,154.1461 C 596.60998,154.1461 573.64631,163.98329 573.64631,176.1041 C 573.64631,183.48356 582.17302,189.99739 595.22002,193.97928 L 595.22002,287.45517 L 654.59941,287.45517 L 654.59941,193.97928 C 667.64642,189.99739 676.17312,183.48356 676.17312,176.1041 L 676.17312,176.06978 C 676.1404,163.9579 653.1886,154.1461 624.9097,154.1461 z "
         style="fill:olive;fill-opacity:1;stroke:black;stroke-width:7.65376854;stroke-miterlimit:4;stroke-dasharray:none;stroke-opacity:1" />
    </g>
  </g>
</svg>
