<?xml version="1.0" encoding="UTF-8" standalone="no"?>
<!-- Created with Inkscape (http://www.inkscape.org/) -->
<svg
   xmlns:dc="http://purl.org/dc/elements/1.1/"
   xmlns:cc="http://web.resource.org/cc/"
   xmlns:rdf="http://www.w3.org/1999/02/22-rdf-syntax-ns#"
   xmlns:svg="http://www.w3.org/2000/svg"
   xmlns="http://www.w3.org/2000/svg"
   xmlns:sodipodi="http://sodipodi.sourceforge.net/DTD/sodipodi-0.dtd"
   xmlns:inkscape="http://www.inkscape.org/namespaces/inkscape"
   width="1528.793"
   height="1040.5022"
   id="svg1906"
   sodipodi:version="0.32"
   inkscape:version="0.44.1"
   version="1.0"
   sodipodi:docbase="/home/lok/pygameLesson/racingKiller/data"
   sodipodi:docname="robot2.svg"
   inkscape:export-filename="/home/lok/pygameLesson/racingKiller/data/robot2_all.png"
   inkscape:export-xdpi="23.690989"
   inkscape:export-ydpi="23.690989">
  <defs
     id="defs1908" />
  <sodipodi:namedview
     id="base"
     pagecolor="#ffffff"
     bordercolor="#666666"
     borderopacity="1.0"
     gridtolerance="10000"
     guidetolerance="10"
     objecttolerance="10"
     inkscape:pageopacity="0.0"
     inkscape:pageshadow="2"
     inkscape:zoom="0.60439838"
     inkscape:cx="672.60584"
     inkscape:cy="624.65982"
     inkscape:document-units="px"
     inkscape:current-layer="layer1"
     inkscape:window-width="1014"
     inkscape:window-height="689"
     inkscape:window-x="0"
     inkscape:window-y="25"
     showguides="true"
     inkscape:guide-bbox="true" />
  <metadata
     id="metadata1911">
    <rdf:RDF>
      <cc:Work
         rdf:about="">
        <dc:format>image/svg+xml</dc:format>
        <dc:type
           rdf:resource="http://purl.org/dc/dcmitype/StillImage" />
      </cc:Work>
    </rdf:RDF>
  </metadata>
  <g
     inkscape:label="Layer 1"
     inkscape:groupmode="layer"
     id="layer1"
     transform="translate(554.0256,521.14)">
    <g
       id="g2027"
       transform="translate(208,344.25)"
       inkscape:export-filename="/home/lok/pygameLesson/racingKiller/data/boctopus3.png"
       inkscape:export-xdpi="15.47278"
       inkscape:export-ydpi="15.47278">
      <path
         sodipodi:nodetypes="ccczczczczczczczccc"
         id="path1931"
         d="M 32.91274,-14.2618 L 212.77248,-59.50071 L 380.63852,-1.26271 C 380.63852,-1.26271 328.6464,104.60924 360.65428,86.48118 C 391.84132,68.81802 340.67004,174.22507 340.67004,174.22507 C 340.67004,174.22507 278.67459,169.99934 319.68659,99.48028 C 361.19486,28.10789 298.70314,24.73549 298.70314,24.73549 C 298.70314,24.73549 243.73965,58.83138 274.72205,99.48028 C 304.7315,138.85267 250.74095,174.22507 250.74095,174.22507 C 250.74095,174.22507 268.2508,44.41534 227.76066,116.60561 C 188.12094,187.27965 200.78036,14.98616 200.78036,14.98616 C 200.78036,14.98616 215.90814,64.08696 165.79533,97.35584 C 114.30282,131.54069 162.81031,167.72553 162.81031,167.72553 C 162.81031,167.72553 53.31937,147.04114 135.82843,68.35675 C 217.29619,-9.33461 116.84655,-11.01203 116.84655,-11.01203 C 116.84655,-11.01203 76.856,23.23503 92.86546,73.48209 C 109.45443,125.54804 68.88436,157.97621 68.88436,157.97621 L 50.89855,71.85721 L 32.91274,-14.2618 z "
         style="fill:#d40000;fill-rule:evenodd;stroke:black;stroke-width:1.27420831px;stroke-linecap:butt;stroke-linejoin:miter;stroke-opacity:1" />
      <g
         transform="translate(-228,-258)"
         id="g1922">
        <path
           sodipodi:type="arc"
           style="fill:navy;fill-opacity:1"
           id="path1916"
           sodipodi:cx="421.42856"
           sodipodi:cy="249.50504"
           sodipodi:rx="138.57143"
           sodipodi:ry="105.71429"
           d="M 559.99998,249.50504 A 138.57143,105.71429 0 1 1 559.99989,249.38268"
           sodipodi:start="0"
           sodipodi:end="6.2820279"
           sodipodi:open="true"
           transform="matrix(1.082474,0,0,0.945946,-23.32843,19.20105)" />
        <path
           sodipodi:type="arc"
           style="fill:yellow;fill-opacity:1"
           id="path1918"
           sodipodi:cx="-397.14285"
           sodipodi:cy="135.21933"
           sodipodi:rx="62.857143"
           sodipodi:ry="71.428574"
           d="M -334.28571,135.21933 A 62.857143,71.428574 0 1 1 -334.28575,135.13666"
           sodipodi:start="0"
           sodipodi:end="6.2820279"
           sodipodi:open="true"
           transform="matrix(0.795455,0,0,1.05,693.9091,113.239)" />
        <path
           sodipodi:type="arc"
           style="fill:yellow;fill-opacity:1"
           id="path1920"
           sodipodi:cx="-397.14285"
           sodipodi:cy="135.21933"
           sodipodi:rx="62.857143"
           sodipodi:ry="71.428574"
           d="M -334.28571,135.21933 A 62.857143,71.428574 0 1 1 -334.28572,135.17591 L -397.14285,135.21933 z"
           sodipodi:start="0"
           sodipodi:end="6.2825774"
           transform="matrix(0.795455,0,0,1.05,799.9093,113.239)" />
      </g>
      <path
         sodipodi:nodetypes="ccczczczccczcsczc"
         id="path1988"
         d="M 380.68977,14.98618 L 210.83003,36.22509 L 32.963993,1.98709 C 32.963993,1.98709 30.234243,-84.75307 52.948233,-85.7568 C 75.662223,-86.76053 72.956473,-173.52469 72.932473,-173.50069 C 72.932473,-173.50069 125.7174,-155.95972 96.209123,-90.58733 C 67.029733,-25.94355 114.89937,-24.01111 114.89937,-24.01111 C 114.89937,-24.01111 160.54833,-52.11873 138.88046,-98.7559 C 116.87101,-146.12829 178.86156,-165.50069 178.86156,-165.50069 L 212.82215,-14.26178 L 212.7922,-131.00115 C 212.7922,-131.00115 262.28314,-122.31676 273.77408,-77.63237 C 285.26502,-32.94798 296.75596,11.73641 296.75596,11.73641 C 296.75596,11.73641 361.05391,-67.74714 312.54446,-65.4942 C 270.69683,-63.55066 310.71815,-155.25183 310.71815,-155.25183 C 310.71815,-155.25183 329.71105,-82.19233 352.70396,-75.13283 C 373.8766,-68.6322 380.68977,14.98618 380.68977,14.98618 z "
         style="fill:#d40000;fill-opacity:1;fill-rule:evenodd;stroke:black;stroke-width:1.27420831px;stroke-linecap:butt;stroke-linejoin:miter;stroke-opacity:1" />
    </g>
    <g
       id="g2061"
       transform="translate(38,98.49999)"
       inkscape:export-filename="/home/lok/pygameLesson/racingKiller/data/boctopus1.png"
       inkscape:export-xdpi="15.450644"
       inkscape:export-ydpi="15.450644">
      <path
         sodipodi:nodetypes="ccczczczccczcsczc"
         id="path1990"
         d="M -591.38851,231.73822 L -419.52877,178.49931 L -243.66273,244.73731 C -243.66273,244.73731 -240.93299,331.47747 -263.64697,332.4812 C -286.36097,333.48493 -283.65521,420.24909 -283.63121,420.22509 C -283.63121,420.22509 -336.41615,402.68412 -306.90787,337.31173 C -277.72848,272.66795 -325.59812,270.73551 -325.59812,270.73551 C -325.59812,270.73551 -371.24707,298.84313 -349.57921,345.4803 C -327.56975,392.85269 -389.56031,412.22509 -389.56031,412.22509 L -423.52089,260.98618 L -423.49095,377.72555 C -423.49095,377.72555 -472.98189,369.04116 -484.47283,324.35677 C -495.96377,279.67238 -507.4547,234.98799 -507.4547,234.98799 C -507.4547,234.98799 -571.75266,314.47154 -523.2432,312.2186 C -481.39558,310.27506 -521.41689,401.97623 -521.41689,401.97623 C -521.41689,401.97623 -540.4098,328.91673 -563.4027,321.85723 C -584.57534,315.3566 -591.38851,231.73822 -591.38851,231.73822 z "
         style="fill:#d40000;fill-opacity:1;fill-rule:evenodd;stroke:black;stroke-width:1.27420831px;stroke-linecap:butt;stroke-linejoin:miter;stroke-opacity:1" />
      <g
         transform="translate(-18,42)"
         id="g1996">
        <path
           sodipodi:type="arc"
           style="fill:navy;fill-opacity:1"
           id="path1946"
           sodipodi:cx="421.42856"
           sodipodi:cy="249.50504"
           sodipodi:rx="138.57143"
           sodipodi:ry="105.71429"
           d="M 559.99998,249.50504 A 138.57143,105.71429 0 1 1 559.99989,249.38268"
           sodipodi:start="0"
           sodipodi:end="6.2820279"
           sodipodi:open="true"
           transform="matrix(1.082474,0,0,0.945946,-864.1342,-31.6561)" />
        <g
           id="g1992"
           transform="translate(-0.948675,-1.857106)">
          <path
             transform="matrix(0.795455,0,0,1.05,-146.0909,64.239)"
             sodipodi:open="true"
             sodipodi:end="6.2820279"
             sodipodi:start="0"
             d="M -334.28571,135.21933 A 62.857143,71.428574 0 1 1 -334.28575,135.13666"
             sodipodi:ry="71.428574"
             sodipodi:rx="62.857143"
             sodipodi:cy="135.21933"
             sodipodi:cx="-397.14285"
             id="path1948"
             style="fill:yellow;fill-opacity:1"
             sodipodi:type="arc" />
          <path
             transform="matrix(0.795455,0,0,1.05,-36.0907,64.239)"
             sodipodi:end="6.2825774"
             sodipodi:start="0"
             d="M -334.28571,135.21933 A 62.857143,71.428574 0 1 1 -334.28572,135.17591 L -397.14285,135.21933 z"
             sodipodi:ry="71.428574"
             sodipodi:rx="62.857143"
             sodipodi:cy="135.21933"
             sodipodi:cx="-397.14285"
             id="path1950"
             style="fill:yellow;fill-opacity:1"
             sodipodi:type="arc" />
        </g>
      </g>
      <path
         sodipodi:nodetypes="ccczczczczczczczccc"
         id="path2016"
         d="M -591.33726,260.48618 L -411.47752,305.72509 L -243.61148,247.48709 C -243.61148,247.48709 -295.6036,141.61514 -263.59572,159.7432 C -232.40868,177.40636 -283.57996,71.99931 -283.57996,71.99931 C -283.57996,71.99931 -345.57541,76.22504 -304.56341,146.7441 C -263.05514,218.11649 -325.54686,221.48889 -325.54686,221.48889 C -325.54686,221.48889 -380.51035,187.393 -349.52795,146.7441 C -319.5185,107.37171 -373.50905,71.99931 -373.50905,71.99931 C -373.50905,71.99931 -355.9992,201.80904 -396.48934,129.61877 C -436.12906,58.94473 -423.46964,231.23822 -423.46964,231.23822 C -423.46964,231.23822 -408.34186,182.13742 -458.45467,148.86854 C -509.94718,114.68369 -461.43969,78.49885 -461.43969,78.49885 C -461.43969,78.49885 -570.93063,99.18324 -488.42157,177.86763 C -406.95381,255.55899 -507.40345,257.23641 -507.40345,257.23641 C -507.40345,257.23641 -547.394,222.98935 -531.38454,172.74229 C -514.79557,120.67634 -555.36564,88.24817 -555.36564,88.24817 L -573.35145,174.36717 L -591.33726,260.48618 z "
         style="fill:#d40000;fill-rule:evenodd;stroke:black;stroke-width:1.27420831px;stroke-linecap:butt;stroke-linejoin:miter;stroke-opacity:1" />
    </g>
    <g
       id="g2079"
       transform="translate(0,18.25001)"
       inkscape:export-filename="/home/lok/pygameLesson/racingKiller/data/boctopus4.png"
       inkscape:export-xdpi="15.47278"
       inkscape:export-ydpi="15.47278">
      <path
         sodipodi:nodetypes="ccczczczczczczczczc"
         id="path1966"
         d="M 615.19732,317.7382 L 775.05706,296.49929 L 958.9231,324.73729 C 958.9231,324.73729 902.93098,384.60924 938.93886,412.48118 C 973.70956,439.39548 918.95462,500.22507 918.95462,500.22507 C 918.95462,500.22507 868.4629,482.85267 897.97117,425.48028 C 927.07243,368.89924 876.98772,350.73549 876.98772,350.73549 C 868.99402,375.65042 824.99718,404.10789 853.00663,425.48028 C 882.00816,447.60967 837.01923,475.31014 829.02553,500.22507 C 829.02553,500.22507 780.06747,433.58594 804.04523,420.60561 C 829.55508,406.79588 779.06494,340.98616 779.06494,340.98616 C 779.06494,340.98616 718.14662,352.06503 760.07991,417.35584 C 802.5874,483.54068 741.09489,493.72553 741.09489,493.72553 C 741.09489,493.72553 697.60395,455.04114 718.11301,404.35675 C 737.92865,355.38603 695.13113,314.98797 695.13113,314.98797 C 695.13113,314.98797 647.70122,317.73315 649.15004,365.48209 C 650.65949,415.22915 693.16894,449.97621 693.16894,449.97621 C 693.16894,449.97621 659.67603,448.41671 629.18313,397.85721 C 599.56991,348.75629 615.19732,317.7382 615.19732,317.7382 z "
         style="fill:#d40000;fill-rule:evenodd;stroke:black;stroke-width:1.27420831px;stroke-linecap:butt;stroke-linejoin:miter;stroke-opacity:1" />
      <g
         transform="translate(352.143,62)"
         id="g1968">
        <path
           sodipodi:type="arc"
           style="fill:navy;fill-opacity:1"
           id="path1970"
           sodipodi:cx="421.42856"
           sodipodi:cy="249.50504"
           sodipodi:rx="138.57143"
           sodipodi:ry="105.71429"
           d="M 559.99998,249.50504 A 138.57143,105.71429 0 1 1 559.99989,249.38268"
           sodipodi:start="0"
           sodipodi:end="6.2820279"
           sodipodi:open="true"
           transform="matrix(1.082474,0,0,0.945946,-23.32843,19.20105)" />
        <path
           sodipodi:type="arc"
           style="fill:yellow;fill-opacity:1"
           id="path1972"
           sodipodi:cx="-397.14285"
           sodipodi:cy="135.21933"
           sodipodi:rx="62.857143"
           sodipodi:ry="71.428574"
           d="M -334.28571,135.21933 A 62.857143,71.428574 0 1 1 -334.28575,135.13666"
           sodipodi:start="0"
           sodipodi:end="6.2820279"
           sodipodi:open="true"
           transform="matrix(0.795455,0,0,1.05,693.9091,113.239)" />
        <path
           sodipodi:type="arc"
           style="fill:yellow;fill-opacity:1"
           id="path1974"
           sodipodi:cx="-397.14285"
           sodipodi:cy="135.21933"
           sodipodi:rx="62.857143"
           sodipodi:ry="71.428574"
           d="M -334.28571,135.21933 A 62.857143,71.428574 0 1 1 -334.28572,135.17591 L -397.14285,135.21933 z"
           sodipodi:start="0"
           sodipodi:end="6.2825774"
           transform="matrix(0.795455,0,0,1.05,799.9093,113.239)" />
      </g>
      <path
         sodipodi:nodetypes="ccczczczccczcsczc"
         id="path1942"
         d="M 611.08586,340.98616 L 788.9456,350.22507 L 958.81164,327.98707 C 958.81164,327.98707 961.54139,241.24691 938.8274,240.24318 C 916.11341,239.23945 918.81916,152.47529 918.84316,152.49929 C 918.84316,152.49929 866.05823,170.04026 895.56651,235.41265 C 924.7459,300.05643 876.87626,301.98887 876.87626,301.98887 C 876.87626,301.98887 831.2273,273.88125 852.89517,227.24408 C 874.90462,179.87169 812.91407,160.49929 812.91407,160.49929 L 778.95348,311.7382 L 778.98343,194.99883 C 778.98343,194.99883 729.49249,203.68322 718.00155,248.36761 C 706.51061,293.052 695.01967,337.73639 695.01967,337.73639 C 695.01967,337.73639 630.72172,258.25284 679.23117,260.50578 C 721.0788,262.44932 681.05748,170.74815 681.05748,170.74815 C 681.05748,170.74815 662.06458,243.80765 639.07167,250.86715 C 617.89903,257.36778 611.08586,340.98616 611.08586,340.98616 z "
         style="fill:#d40000;fill-opacity:1;fill-rule:evenodd;stroke:black;stroke-width:1.27420831px;stroke-linecap:butt;stroke-linejoin:miter;stroke-opacity:1" />
    </g>
    <g
       id="g2070"
       transform="translate(0,-18.25002)"
       inkscape:export-filename="/home/lok/pygameLesson/racingKiller/data/boctopus2.png"
       inkscape:export-xdpi="15.47278"
       inkscape:export-ydpi="15.47278">
      <path
         sodipodi:nodetypes="ccczczczczczczczccc"
         id="path2049"
         d="M -171.33279,348.23822 L 8.5269542,302.99931 L 176.39299,361.23731 C 176.39299,361.23731 124.40087,467.10926 156.40875,448.9812 C 187.59579,431.31804 136.42451,536.72509 136.42451,536.72509 C 136.42451,536.72509 74.429064,532.49936 115.44106,461.9803 C 156.94933,390.60791 94.457614,387.23551 94.457614,387.23551 C 94.457614,387.23551 39.494124,421.3314 70.476524,461.9803 C 100.48597,501.35269 46.495424,536.72509 46.495424,536.72509 C 46.495424,536.72509 64.005274,406.91536 23.515134,479.10563 C -16.124586,549.77967 -3.4651658,377.48618 -3.4651658,377.48618 C -3.4651658,377.48618 11.662614,426.58698 -38.450196,459.85586 C -89.942706,494.04071 -41.435216,530.22555 -41.435216,530.22555 C -41.435216,530.22555 -150.92616,509.54116 -68.417096,430.85677 C 13.050664,353.16541 -87.398976,351.48799 -87.398976,351.48799 C -87.398976,351.48799 -127.38953,385.73505 -111.38007,435.98211 C -94.791096,488.04806 -135.36117,520.47623 -135.36117,520.47623 L -153.34698,434.35723 L -171.33279,348.23822 z "
         style="fill:#d40000;fill-rule:evenodd;stroke:black;stroke-width:1.27420831px;stroke-linecap:butt;stroke-linejoin:miter;stroke-opacity:1" />
      <g
         transform="matrix(1,0,0,-1,410.4788,571.2244)"
         id="g2051">
        <path
           sodipodi:type="arc"
           style="fill:navy;fill-opacity:1"
           id="path2053"
           sodipodi:cx="421.42856"
           sodipodi:cy="249.50504"
           sodipodi:rx="138.57143"
           sodipodi:ry="105.71429"
           d="M 559.99998,249.50504 A 138.57143,105.71429 0 1 1 559.99989,249.38268"
           sodipodi:start="0"
           sodipodi:end="6.2820279"
           sodipodi:open="true"
           transform="matrix(1.082474,0,0,0.945946,-864.1342,-31.6561)" />
        <g
           id="g2055"
           transform="translate(-0.948675,-1.857106)">
          <path
             transform="matrix(0.795455,0,0,1.05,-146.0909,64.239)"
             sodipodi:open="true"
             sodipodi:end="6.2820279"
             sodipodi:start="0"
             d="M -334.28571,135.21933 A 62.857143,71.428574 0 1 1 -334.28575,135.13666"
             sodipodi:ry="71.428574"
             sodipodi:rx="62.857143"
             sodipodi:cy="135.21933"
             sodipodi:cx="-397.14285"
             id="path2057"
             style="fill:yellow;fill-opacity:1"
             sodipodi:type="arc" />
          <path
             transform="matrix(0.795455,0,0,1.05,-36.0907,64.239)"
             sodipodi:end="6.2825774"
             sodipodi:start="0"
             d="M -334.28571,135.21933 A 62.857143,71.428574 0 1 1 -334.28572,135.17591 L -397.14285,135.21933 z"
             sodipodi:ry="71.428574"
             sodipodi:rx="62.857143"
             sodipodi:cy="135.21933"
             sodipodi:cx="-397.14285"
             id="path2059"
             style="fill:yellow;fill-opacity:1"
             sodipodi:type="arc" />
        </g>
      </g>
      <path
         sodipodi:nodetypes="ccczczczczczczczczc"
         id="path2040"
         d="M 172.33278,371.48619 L 12.473042,392.7251 L -171.393,364.4871 C -171.393,364.4871 -115.40088,304.61515 -151.40876,276.74321 C -186.17946,249.82891 -131.42452,188.99932 -131.42452,188.99932 C -131.42452,188.99932 -80.932798,206.37172 -110.44107,263.74411 C -139.54233,320.32515 -89.457618,338.4889 -89.457618,338.4889 C -81.463918,313.57397 -37.467078,285.1165 -65.476528,263.74411 C -94.478058,241.61472 -49.489128,213.91425 -41.495428,188.99932 C -41.495428,188.99932 7.4626316,255.63845 -16.515128,268.61878 C -42.024978,282.42851 8.4651616,348.23823 8.4651616,348.23823 C 8.4651616,348.23823 69.383482,337.15936 27.450192,271.86855 C -15.057298,205.68371 46.435212,195.49886 46.435212,195.49886 C 46.435212,195.49886 89.926152,234.18325 69.417092,284.86764 C 49.601452,333.83836 92.398972,374.23642 92.398972,374.23642 C 92.398972,374.23642 139.82888,371.49124 138.38006,323.7423 C 136.87061,273.99524 94.361162,239.24818 94.361162,239.24818 C 94.361162,239.24818 127.85407,240.80768 158.34697,291.36718 C 187.96019,340.4681 172.33278,371.48619 172.33278,371.48619 z "
         style="fill:#d40000;fill-rule:evenodd;stroke:black;stroke-width:1.27420831px;stroke-linecap:butt;stroke-linejoin:miter;stroke-opacity:1" />
    </g>
    <g
       id="g2606"
       inkscape:export-filename="/home/lok/pygameLesson/racingKiller/data/yoctopus3.png"
       inkscape:export-xdpi="15.47278"
       inkscape:export-ydpi="15.47278">
      <path
         sodipodi:nodetypes="ccczczczczczczczccc"
         id="path2089"
         d="M 256.11984,-19.386788 L 435.97958,-64.625698 L 603.84562,-6.387698 C 603.84562,-6.387698 551.8535,99.484252 583.86138,81.356192 C 615.04842,63.693032 563.87714,169.10008 563.87714,169.10008 C 563.87714,169.10008 501.88169,164.87435 542.89369,94.355292 C 584.40196,22.982902 521.91024,19.610502 521.91024,19.610502 C 521.91024,19.610502 466.94675,53.706392 497.92915,94.355292 C 527.9386,133.72768 473.94805,169.10008 473.94805,169.10008 C 473.94805,169.10008 491.4579,39.290352 450.96776,111.48062 C 411.32804,182.15466 423.98746,9.861172 423.98746,9.861172 C 423.98746,9.861172 439.11524,58.961972 389.00243,92.230852 C 337.50992,126.4157 386.01741,162.60054 386.01741,162.60054 C 386.01741,162.60054 276.52647,141.91615 359.03553,63.231762 C 440.50329,-14.459598 340.05365,-16.137018 340.05365,-16.137018 C 340.05365,-16.137018 300.0631,18.110042 316.07256,68.357102 C 332.66153,120.42305 292.09146,152.85122 292.09146,152.85122 L 274.10565,66.732222 L 256.11984,-19.386788 z "
         style="fill:#d40000;fill-rule:evenodd;stroke:black;stroke-width:1.27420831px;stroke-linecap:butt;stroke-linejoin:miter;stroke-opacity:1" />
      <path
         transform="matrix(1.082474,0,0,0.945946,-28.12133,-243.9239)"
         sodipodi:open="true"
         sodipodi:end="6.2820279"
         sodipodi:start="0"
         d="M 559.99998,249.50504 A 138.57143,105.71429 0 1 1 559.99989,249.38268"
         sodipodi:ry="105.71429"
         sodipodi:rx="138.57143"
         sodipodi:cy="249.50504"
         sodipodi:cx="421.42856"
         id="path2093"
         style="fill:green;fill-opacity:1"
         sodipodi:type="arc" />
      <path
         transform="matrix(0.795455,0,0,1.05,689.1162,-149.886)"
         sodipodi:open="true"
         sodipodi:end="6.2820279"
         sodipodi:start="0"
         d="M -334.28571,135.21933 A 62.857143,71.428574 0 1 1 -334.28575,135.13666"
         sodipodi:ry="71.428574"
         sodipodi:rx="62.857143"
         sodipodi:cy="135.21933"
         sodipodi:cx="-397.14285"
         id="path2095"
         style="fill:yellow;fill-opacity:1"
         sodipodi:type="arc" />
      <path
         transform="matrix(0.795455,0,0,1.05,795.1164,-149.886)"
         sodipodi:end="6.2825774"
         sodipodi:start="0"
         d="M -334.28571,135.21933 A 62.857143,71.428574 0 1 1 -334.28572,135.17591 L -397.14285,135.21933 z"
         sodipodi:ry="71.428574"
         sodipodi:rx="62.857143"
         sodipodi:cy="135.21933"
         sodipodi:cx="-397.14285"
         id="path2097"
         style="fill:yellow;fill-opacity:1"
         sodipodi:type="arc" />
      <path
         sodipodi:nodetypes="ccczczczccczcsczc"
         id="path2099"
         d="M 603.89687,9.861192 L 434.03713,31.100102 L 256.17109,-3.137898 C 256.17109,-3.137898 253.44134,-89.878058 276.15533,-90.881788 C 298.86932,-91.885518 296.16357,-178.64968 296.13957,-178.62568 C 296.13957,-178.62568 348.9245,-161.08471 319.41622,-95.712318 C 290.23683,-31.068538 338.10647,-29.136098 338.10647,-29.136098 C 338.10647,-29.136098 383.75543,-57.243718 362.08756,-103.88089 C 340.07811,-151.25328 402.06866,-170.62568 402.06866,-170.62568 L 436.02925,-19.386768 L 435.9993,-136.12614 C 435.9993,-136.12614 485.49024,-127.44175 496.98118,-82.757358 C 508.47212,-38.072968 519.96306,6.611422 519.96306,6.611422 C 519.96306,6.611422 584.26101,-72.872128 535.75156,-70.619188 C 493.90393,-68.675648 533.92525,-160.37682 533.92525,-160.37682 C 533.92525,-160.37682 552.91815,-87.317318 575.91106,-80.257818 C 597.0837,-73.757188 603.89687,9.861192 603.89687,9.861192 z "
         style="fill:#d40000;fill-opacity:1;fill-rule:evenodd;stroke:black;stroke-width:1.27420831px;stroke-linecap:butt;stroke-linejoin:miter;stroke-opacity:1" />
    </g>
    <g
       id="g2589"
       inkscape:export-filename="/home/lok/pygameLesson/racingKiller/data/yoctopus1.png"
       inkscape:export-xdpi="15.47278"
       inkscape:export-ydpi="15.47278">
      <path
         sodipodi:nodetypes="ccczczczccczcsczc"
         id="path2103"
         d="M -536.18141,-19.136782 L -364.32167,-72.375692 L -188.45563,-6.137692 C -188.45563,-6.137692 -185.72589,80.602468 -208.43987,81.606198 C -231.15387,82.609928 -228.44811,169.37409 -228.42411,169.35009 C -228.42411,169.35009 -281.20905,151.80912 -251.70077,86.436728 C -222.52138,21.792948 -270.39102,19.860508 -270.39102,19.860508 C -270.39102,19.860508 -316.03997,47.968128 -294.37211,94.605298 C -272.36265,141.97769 -334.35321,161.35009 -334.35321,161.35009 L -368.31379,10.111178 L -368.28385,126.85055 C -368.28385,126.85055 -417.77479,118.16616 -429.26573,73.481768 C -440.75667,28.797378 -452.2476,-15.887012 -452.2476,-15.887012 C -452.2476,-15.887012 -516.54556,63.596538 -468.0361,61.343598 C -426.18848,59.400058 -466.20979,151.10123 -466.20979,151.10123 C -466.20979,151.10123 -485.2027,78.041728 -508.1956,70.982228 C -529.36824,64.481598 -536.18141,-19.136782 -536.18141,-19.136782 z "
         style="fill:#d40000;fill-opacity:1;fill-rule:evenodd;stroke:black;stroke-width:1.27420831px;stroke-linecap:butt;stroke-linejoin:miter;stroke-opacity:1" />
      <path
         transform="matrix(1.082474,0,0,0.945946,-826.9271,-240.5311)"
         sodipodi:open="true"
         sodipodi:end="6.2820279"
         sodipodi:start="0"
         d="M 559.99998,249.50504 A 138.57143,105.71429 0 1 1 559.99989,249.38268"
         sodipodi:ry="105.71429"
         sodipodi:rx="138.57143"
         sodipodi:cy="249.50504"
         sodipodi:cx="421.42856"
         id="path2107"
         style="fill:green;fill-opacity:1"
         sodipodi:type="arc" />
      <g
         transform="translate(36.25842,-210.7321)"
         id="g2109">
        <path
           sodipodi:type="arc"
           style="fill:yellow;fill-opacity:1"
           id="path2111"
           sodipodi:cx="-397.14285"
           sodipodi:cy="135.21933"
           sodipodi:rx="62.857143"
           sodipodi:ry="71.428574"
           d="M -334.28571,135.21933 A 62.857143,71.428574 0 1 1 -334.28575,135.13666"
           sodipodi:start="0"
           sodipodi:end="6.2820279"
           sodipodi:open="true"
           transform="matrix(0.795455,0,0,1.05,-146.0909,64.239)" />
        <path
           sodipodi:type="arc"
           style="fill:yellow;fill-opacity:1"
           id="path2113"
           sodipodi:cx="-397.14285"
           sodipodi:cy="135.21933"
           sodipodi:rx="62.857143"
           sodipodi:ry="71.428574"
           d="M -334.28571,135.21933 A 62.857143,71.428574 0 1 1 -334.28572,135.17591 L -397.14285,135.21933 z"
           sodipodi:start="0"
           sodipodi:end="6.2825774"
           transform="matrix(0.795455,0,0,1.05,-36.0907,64.239)" />
      </g>
      <path
         sodipodi:nodetypes="ccczczczczczczczccc"
         id="path2115"
         d="M -536.13016,9.611178 L -356.27042,54.850088 L -188.40438,-3.387912 C -188.40438,-3.387912 -240.3965,-109.25986 -208.38862,-91.131802 C -177.20158,-73.468642 -228.37286,-178.87569 -228.37286,-178.87569 C -228.37286,-178.87569 -290.36831,-174.64996 -249.35631,-104.1309 C -207.84804,-32.758512 -270.33976,-29.386112 -270.33976,-29.386112 C -270.33976,-29.386112 -325.30325,-63.482002 -294.32085,-104.1309 C -264.3114,-143.50329 -318.30195,-178.87569 -318.30195,-178.87569 C -318.30195,-178.87569 -300.7921,-49.065962 -341.28224,-121.25623 C -380.92196,-191.93027 -368.26254,-19.636782 -368.26254,-19.636782 C -368.26254,-19.636782 -353.13476,-68.737582 -403.24757,-102.00646 C -454.74008,-136.19131 -406.23259,-172.37615 -406.23259,-172.37615 C -406.23259,-172.37615 -515.72353,-151.69176 -433.21447,-73.007372 C -351.74671,4.683988 -452.19635,6.361408 -452.19635,6.361408 C -452.19635,6.361408 -492.1869,-27.885652 -476.17744,-78.132712 C -459.58847,-130.19866 -500.15854,-162.62683 -500.15854,-162.62683 L -518.14435,-76.507832 L -536.13016,9.611178 z "
         style="fill:#d40000;fill-rule:evenodd;stroke:black;stroke-width:1.27420831px;stroke-linecap:butt;stroke-linejoin:miter;stroke-opacity:1" />
    </g>
    <g
       id="g2623"
       inkscape:export-filename="/home/lok/pygameLesson/racingKiller/data/yoctopus4.png"
       inkscape:export-xdpi="15.47278"
       inkscape:export-ydpi="15.47278">
      <path
         sodipodi:nodetypes="ccczczczczczczczczc"
         id="path2119"
         d="M 630.40442,-13.386778 L 790.26416,-34.625688 L 974.1302,-6.387688 C 974.1302,-6.387688 918.13808,53.484262 954.14596,81.356202 C 988.91666,108.2705 934.16172,169.10009 934.16172,169.10009 C 934.16172,169.10009 883.67,151.72769 913.17827,94.355302 C 942.27953,37.774262 892.19482,19.610512 892.19482,19.610512 C 884.20112,44.525442 840.20428,72.982912 868.21373,94.355302 C 897.21526,116.48469 852.22633,144.18516 844.23263,169.10009 C 844.23263,169.10009 795.27457,102.46096 819.25233,89.480632 C 844.76218,75.670902 794.27204,9.861182 794.27204,9.861182 C 794.27204,9.861182 733.35372,20.940052 775.28701,86.230862 C 817.7945,152.4157 756.30199,162.60055 756.30199,162.60055 C 756.30199,162.60055 712.81105,123.91616 733.32011,73.231772 C 753.13575,24.261052 710.33823,-16.137008 710.33823,-16.137008 C 710.33823,-16.137008 662.90832,-13.391828 664.35714,34.357112 C 665.86659,84.104172 708.37604,118.85123 708.37604,118.85123 C 708.37604,118.85123 674.88313,117.29173 644.39023,66.732232 C 614.77701,17.631312 630.40442,-13.386778 630.40442,-13.386778 z "
         style="fill:#d40000;fill-rule:evenodd;stroke:black;stroke-width:1.27420831px;stroke-linecap:butt;stroke-linejoin:miter;stroke-opacity:1" />
      <path
         transform="matrix(1.082474,0,0,0.945946,344.0217,-249.9239)"
         sodipodi:open="true"
         sodipodi:end="6.2820279"
         sodipodi:start="0"
         d="M 559.99998,249.50504 A 138.57143,105.71429 0 1 1 559.99989,249.38268"
         sodipodi:ry="105.71429"
         sodipodi:rx="138.57143"
         sodipodi:cy="249.50504"
         sodipodi:cx="421.42856"
         id="path2123"
         style="fill:green;fill-opacity:1"
         sodipodi:type="arc" />
      <path
         transform="matrix(0.795455,0,0,1.05,1061.259,-155.886)"
         sodipodi:open="true"
         sodipodi:end="6.2820279"
         sodipodi:start="0"
         d="M -334.28571,135.21933 A 62.857143,71.428574 0 1 1 -334.28575,135.13666"
         sodipodi:ry="71.428574"
         sodipodi:rx="62.857143"
         sodipodi:cy="135.21933"
         sodipodi:cx="-397.14285"
         id="path2125"
         style="fill:yellow;fill-opacity:1"
         sodipodi:type="arc" />
      <path
         transform="matrix(0.795455,0,0,1.05,1167.259,-155.886)"
         sodipodi:end="6.2825774"
         sodipodi:start="0"
         d="M -334.28571,135.21933 A 62.857143,71.428574 0 1 1 -334.28572,135.17591 L -397.14285,135.21933 z"
         sodipodi:ry="71.428574"
         sodipodi:rx="62.857143"
         sodipodi:cy="135.21933"
         sodipodi:cx="-397.14285"
         id="path2127"
         style="fill:yellow;fill-opacity:1"
         sodipodi:type="arc" />
      <path
         sodipodi:nodetypes="ccczczczccczcsczc"
         id="path2129"
         d="M 626.29296,9.861182 L 804.1527,19.100092 L 974.01874,-3.137908 C 974.01874,-3.137908 976.74849,-89.878068 954.0345,-90.881798 C 931.32051,-91.885528 934.02626,-178.64969 934.05026,-178.62569 C 934.05026,-178.62569 881.26533,-161.08472 910.77361,-95.712328 C 939.953,-31.068548 892.08336,-29.136108 892.08336,-29.136108 C 892.08336,-29.136108 846.4344,-57.243728 868.10227,-103.8809 C 890.11172,-151.25329 828.12117,-170.62569 828.12117,-170.62569 L 794.16058,-19.386778 L 794.19053,-136.12615 C 794.19053,-136.12615 744.69959,-127.44176 733.20865,-82.757368 C 721.71771,-38.072978 710.22677,6.611412 710.22677,6.611412 C 710.22677,6.611412 645.92882,-72.872138 694.43827,-70.619198 C 736.2859,-68.675658 696.26458,-160.37683 696.26458,-160.37683 C 696.26458,-160.37683 677.27168,-87.317328 654.27877,-80.257828 C 633.10613,-73.757198 626.29296,9.861182 626.29296,9.861182 z "
         style="fill:#d40000;fill-opacity:1;fill-rule:evenodd;stroke:black;stroke-width:1.27420831px;stroke-linecap:butt;stroke-linejoin:miter;stroke-opacity:1" />
    </g>
    <g
       id="g2597"
       inkscape:export-filename="/home/lok/pygameLesson/racingKiller/data/yoctopus2.png"
       inkscape:export-xdpi="15.47278"
       inkscape:export-ydpi="15.47278">
      <path
         sodipodi:nodetypes="ccczczczczczczczccc"
         id="path2133"
         d="M -156.12569,-19.386785 L 23.734054,-64.625695 L 191.60009,-6.387695 C 191.60009,-6.387695 139.60797,99.484255 171.61585,81.356195 C 202.80289,63.693035 151.63161,169.10009 151.63161,169.10009 C 151.63161,169.10009 89.636164,164.87436 130.64816,94.355295 C 172.15643,22.982905 109.66471,19.610505 109.66471,19.610505 C 109.66471,19.610505 54.701224,53.706395 85.683624,94.355295 C 115.69307,133.72769 61.702524,169.10009 61.702524,169.10009 C 61.702524,169.10009 79.212374,39.290355 38.722234,111.48063 C -0.917486,182.15467 11.741934,9.861175 11.741934,9.861175 C 11.741934,9.861175 26.869714,58.961975 -23.243096,92.230855 C -74.735606,126.4157 -26.228116,162.60055 -26.228116,162.60055 C -26.228116,162.60055 -135.71906,141.91616 -53.209996,63.231765 C 28.257764,-14.459595 -72.191876,-16.137015 -72.191876,-16.137015 C -72.191876,-16.137015 -112.18243,18.110045 -96.17297,68.357105 C -79.583996,120.42306 -120.15407,152.85122 -120.15407,152.85122 L -138.13988,66.732225 L -156.12569,-19.386785 z "
         style="fill:#d40000;fill-rule:evenodd;stroke:black;stroke-width:1.27420831px;stroke-linecap:butt;stroke-linejoin:miter;stroke-opacity:1" />
      <g
         id="g2234">
        <path
           sodipodi:type="arc"
           style="fill:green;fill-opacity:1"
           id="path2137"
           sodipodi:cx="421.42856"
           sodipodi:cy="249.50504"
           sodipodi:rx="138.57143"
           sodipodi:ry="105.71429"
           d="M 559.99998,249.50504 A 138.57143,105.71429 0 1 1 559.99989,249.38268"
           sodipodi:start="0"
           sodipodi:end="6.2820279"
           sodipodi:open="true"
           transform="matrix(1.082474,0,0,-0.945946,-438.4483,235.2555)" />
        <g
           id="g2139"
           transform="matrix(1,0,0,-1,424.7372,205.4565)">
          <path
             transform="matrix(0.795455,0,0,1.05,-146.0909,64.239)"
             sodipodi:open="true"
             sodipodi:end="6.2820279"
             sodipodi:start="0"
             d="M -334.28571,135.21933 A 62.857143,71.428574 0 1 1 -334.28575,135.13666"
             sodipodi:ry="71.428574"
             sodipodi:rx="62.857143"
             sodipodi:cy="135.21933"
             sodipodi:cx="-397.14285"
             id="path2141"
             style="fill:yellow;fill-opacity:1"
             sodipodi:type="arc" />
          <path
             transform="matrix(0.795455,0,0,1.05,-36.0907,64.239)"
             sodipodi:end="6.2825774"
             sodipodi:start="0"
             d="M -334.28571,135.21933 A 62.857143,71.428574 0 1 1 -334.28572,135.17591 L -397.14285,135.21933 z"
             sodipodi:ry="71.428574"
             sodipodi:rx="62.857143"
             sodipodi:cy="135.21933"
             sodipodi:cx="-397.14285"
             id="path2143"
             style="fill:yellow;fill-opacity:1"
             sodipodi:type="arc" />
        </g>
      </g>
      <path
         sodipodi:nodetypes="ccczczczczczczczczc"
         id="path2145"
         d="M 187.53988,3.861185 L 27.680142,25.100095 L -156.1859,-3.137905 C -156.1859,-3.137905 -100.19378,-63.009855 -136.20166,-90.881795 C -170.97236,-117.7961 -116.21742,-178.62568 -116.21742,-178.62568 C -116.21742,-178.62568 -65.725698,-161.25328 -95.23397,-103.88089 C -124.33523,-47.299855 -74.250518,-29.136105 -74.250518,-29.136105 C -66.256818,-54.051035 -22.259978,-82.508505 -50.269428,-103.88089 C -79.270958,-126.01028 -34.282028,-153.71075 -26.288328,-178.62568 C -26.288328,-178.62568 22.669732,-111.98655 -1.308028,-99.006225 C -26.817878,-85.196495 23.672262,-19.386775 23.672262,-19.386775 C 23.672262,-19.386775 84.590582,-30.465645 42.657292,-95.756455 C 0.149802,-161.94129 61.642312,-172.12614 61.642312,-172.12614 C 61.642312,-172.12614 105.13325,-133.44176 84.624192,-82.757365 C 64.808552,-33.786645 107.60607,6.611415 107.60607,6.611415 C 107.60607,6.611415 155.03598,3.866235 153.58716,-43.882705 C 152.07771,-93.629765 109.56826,-128.37682 109.56826,-128.37682 C 109.56826,-128.37682 143.06117,-126.81732 173.55407,-76.257825 C 203.16729,-27.156905 187.53988,3.861185 187.53988,3.861185 z "
         style="fill:#d40000;fill-rule:evenodd;stroke:black;stroke-width:1.27420831px;stroke-linecap:butt;stroke-linejoin:miter;stroke-opacity:1" />
    </g>
    <g
       id="g2548"
       inkscape:export-filename="/home/lok/pygameLesson/racingKiller/data/sea_nettle1.png"
       inkscape:export-xdpi="18.060701"
       inkscape:export-ydpi="18.060701">
      <g
         transform="translate(-409.5066,-369.8814)"
         id="g2240">
        <path
           sodipodi:type="arc"
           style="fill:green;fill-opacity:1"
           id="path2242"
           sodipodi:cx="421.42856"
           sodipodi:cy="249.50504"
           sodipodi:rx="138.57143"
           sodipodi:ry="105.71429"
           d="M 559.99998,249.50504 A 138.57143,105.71429 0 1 1 559.99989,249.38268"
           sodipodi:start="0"
           sodipodi:end="6.2820279"
           sodipodi:open="true"
           transform="matrix(1.082474,0,0,-0.945946,-438.4483,235.2555)" />
        <g
           id="g2244"
           transform="matrix(1,0,0,-1,424.7372,205.4565)">
          <path
             transform="matrix(0.795455,0,0,1.05,-146.0909,64.239)"
             sodipodi:open="true"
             sodipodi:end="6.2820279"
             sodipodi:start="0"
             d="M -334.28571,135.21933 A 62.857143,71.428574 0 1 1 -334.28575,135.13666"
             sodipodi:ry="71.428574"
             sodipodi:rx="62.857143"
             sodipodi:cy="135.21933"
             sodipodi:cx="-397.14285"
             id="path2246"
             style="fill:yellow;fill-opacity:1"
             sodipodi:type="arc" />
          <path
             transform="matrix(0.795455,0,0,1.05,-36.0907,64.239)"
             sodipodi:end="6.2825774"
             sodipodi:start="0"
             d="M -334.28571,135.21933 A 62.857143,71.428574 0 1 1 -334.28572,135.17591 L -397.14285,135.21933 z"
             sodipodi:ry="71.428574"
             sodipodi:rx="62.857143"
             sodipodi:cy="135.21933"
             sodipodi:cx="-397.14285"
             id="path2248"
             style="fill:yellow;fill-opacity:1"
             sodipodi:type="arc" />
        </g>
      </g>
      <path
         sodipodi:open="true"
         sodipodi:end="6.2820279"
         sodipodi:start="0"
         transform="matrix(0.769231,0,0,0.714286,-757.2812,-279.8406)"
         d="M 402,-127.125 A 39,28 0 1 1 401.99997,-127.15741"
         sodipodi:ry="28"
         sodipodi:rx="39"
         sodipodi:cy="-127.125"
         sodipodi:cx="363"
         id="path2250"
         style="fill:navy;fill-opacity:1"
         sodipodi:type="arc" />
      <path
         sodipodi:nodetypes="ccczczczczczczczczc"
         id="path2252"
         d="M -296.23224,-467.29343 L -378.72752,-461.08987 L -473.6112,-469.33777 C -473.6112,-469.33777 -444.71659,-486.82548 -463.29838,-494.96645 C -481.24171,-502.82774 -452.98555,-520.59516 -452.98555,-520.59516 C -452.98555,-520.59516 -426.92943,-515.52094 -442.15705,-498.76332 C -457.17472,-482.23683 -431.32863,-476.93147 -431.32863,-476.93147 C -427.20351,-484.20875 -404.49902,-492.52075 -418.95322,-498.76332 C -433.91944,-505.22698 -410.70296,-513.31788 -406.57786,-520.59516 C -406.57786,-520.59516 -381.31312,-501.13086 -393.68677,-497.3395 C -406.85111,-493.30587 -380.79576,-474.08381 -380.79576,-474.08381 C -380.79576,-474.08381 -349.35901,-477.3198 -370.9986,-496.39028 C -392.93452,-515.7219 -361.20142,-518.69673 -361.20142,-518.69673 C -361.20142,-518.69673 -338.758,-507.39761 -349.34166,-492.59343 C -359.5675,-478.28982 -337.48191,-466.49013 -337.48191,-466.49013 C -337.48191,-466.49013 -313.00585,-467.29196 -313.7535,-481.23872 C -314.53241,-495.76912 -336.4693,-505.91821 -336.4693,-505.91821 C -336.4693,-505.91821 -319.18538,-505.4627 -303.44958,-490.69502 C -288.16775,-476.35337 -296.23224,-467.29343 -296.23224,-467.29343 z "
         style="fill:#d40000;fill-rule:evenodd;stroke:black;stroke-width:0.49469811px;stroke-linecap:butt;stroke-linejoin:miter;stroke-opacity:1" />
      <path
         sodipodi:nodetypes="ccczczczczczczczccc"
         id="path2260"
         d="M -481.28629,-270.09585 L -388.42105,-281.61973 L -301.7484,-266.78454 C -301.7484,-266.78454 -328.59298,-239.81536 -312.06666,-244.43319 C -295.96416,-248.9326 -322.38494,-222.08184 -322.38494,-222.08184 C -322.38494,-222.08184 -354.39445,-223.15828 -333.21912,-241.12188 C -311.78756,-259.30285 -344.0533,-260.16191 -344.0533,-260.16191 C -344.0533,-260.16191 -372.43207,-251.47653 -356.43523,-241.12188 C -340.94074,-231.09239 -368.81715,-222.08184 -368.81715,-222.08184 C -368.81715,-222.08184 -359.77647,-255.14879 -380.68235,-236.75947 C -401.14914,-218.7564 -394.61282,-262.6454 -394.61282,-262.6454 C -394.61282,-262.6454 -386.80204,-250.13776 -412.67631,-241.66304 C -439.26294,-232.955 -414.21753,-223.7375 -414.21753,-223.7375 C -414.21753,-223.7375 -470.74994,-229.00651 -428.14882,-249.0501 C -386.08536,-268.84072 -437.94956,-269.26802 -437.94956,-269.26802 C -437.94956,-269.26802 -458.59749,-260.54413 -450.33149,-247.7445 C -441.76626,-234.48153 -462.71341,-226.22098 -462.71341,-226.22098 L -471.99985,-248.15841 L -481.28629,-270.09585 z "
         style="fill:#d40000;fill-rule:evenodd;stroke:black;stroke-width:0.46210799px;stroke-linecap:butt;stroke-linejoin:miter;stroke-opacity:1" />
      <path
         sodipodi:open="true"
         sodipodi:end="6.2820279"
         sodipodi:start="0"
         transform="matrix(0.769231,0,0,0.714286,-588.1779,-281.4233)"
         d="M 402,-127.125 A 39,28 0 1 1 401.99997,-127.15741"
         sodipodi:ry="28"
         sodipodi:rx="39"
         sodipodi:cy="-127.125"
         sodipodi:cx="363"
         id="path2287"
         style="fill:purple;fill-opacity:1"
         sodipodi:type="arc" />
    </g>
    <g
       id="g2559"
       inkscape:export-filename="/home/lok/pygameLesson/racingKiller/data/sea_nettle2.png"
       inkscape:export-xdpi="18.02483"
       inkscape:export-ydpi="18.02483">
      <path
         sodipodi:nodetypes="ccczczczczczczczczc"
         id="path2331"
         d="M 21.95886,-275.10234 L -60.536419,-281.3059 L -155.42009,-273.058 C -155.42009,-273.058 -126.52548,-255.57029 -145.10727,-247.42932 C -163.0506,-239.56803 -134.79444,-221.80061 -134.79444,-221.80061 C -134.79444,-221.80061 -108.73832,-226.87483 -123.96594,-243.63245 C -138.98361,-260.15894 -113.13752,-265.4643 -113.13752,-265.4643 C -109.0124,-258.18702 -86.307915,-249.87502 -100.76211,-243.63245 C -115.72833,-237.16879 -92.511855,-229.07789 -88.386755,-221.80061 C -88.386755,-221.80061 -63.122019,-241.26491 -75.495665,-245.05627 C -88.660005,-249.0899 -62.604659,-268.31196 -62.604659,-268.31196 C -62.604659,-268.31196 -31.16791,-265.07597 -52.8075,-246.00549 C -74.743415,-226.67387 -43.01032,-223.69904 -43.01032,-223.69904 C -43.01032,-223.69904 -20.5669,-234.99816 -31.15056,-249.80234 C -41.3764,-264.10595 -19.29081,-275.90564 -19.29081,-275.90564 C -19.29081,-275.90564 5.18525,-275.10381 4.4376,-261.15705 C 3.65869,-246.62665 -18.2782,-236.47756 -18.2782,-236.47756 C -18.2782,-236.47756 -0.99428,-236.93307 14.74152,-251.70075 C 30.02335,-266.0424 21.95886,-275.10234 21.95886,-275.10234 z "
         style="fill:#d40000;fill-rule:evenodd;stroke:black;stroke-width:0.49469811px;stroke-linecap:butt;stroke-linejoin:miter;stroke-opacity:1" />
      <path
         sodipodi:nodetypes="ccczczczczczczczccc"
         id="path2333"
         d="M -155.43639,-472.89496 L -62.571147,-461.37108 L 24.10149,-476.20627 C 24.10149,-476.20627 -2.74309,-503.17545 13.78323,-498.55762 C 29.88573,-494.05821 3.46495,-520.90897 3.46495,-520.90897 C 3.46495,-520.90897 -28.54456,-519.83253 -7.36923,-501.86893 C 14.06233,-483.68796 -18.20341,-482.8289 -18.20341,-482.8289 C -18.20341,-482.8289 -46.58218,-491.51428 -30.58534,-501.86893 C -15.09085,-511.89842 -42.96726,-520.90897 -42.96726,-520.90897 C -42.96726,-520.90897 -33.92658,-487.84202 -54.83246,-506.23134 C -75.299237,-524.23441 -68.762917,-480.34541 -68.762917,-480.34541 C -68.762917,-480.34541 -60.952137,-492.85305 -86.826407,-501.32777 C -113.41304,-510.03581 -88.367627,-519.25331 -88.367627,-519.25331 C -88.367627,-519.25331 -144.90004,-513.9843 -102.29892,-493.94071 C -60.235457,-474.15009 -112.09966,-473.72279 -112.09966,-473.72279 C -112.09966,-473.72279 -132.74759,-482.44668 -124.48159,-495.24631 C -115.91636,-508.50928 -136.86351,-516.76983 -136.86351,-516.76983 L -146.14995,-494.8324 L -155.43639,-472.89496 z "
         style="fill:#d40000;fill-rule:evenodd;stroke:black;stroke-width:0.46210799px;stroke-linecap:butt;stroke-linejoin:miter;stroke-opacity:1" />
      <path
         transform="matrix(1.082474,0,0,-0.945946,-521.8529,-134.6258)"
         sodipodi:open="true"
         sodipodi:end="6.2820279"
         sodipodi:start="0"
         d="M 559.99998,249.50504 A 138.57143,105.71429 0 1 1 559.99989,249.38268"
         sodipodi:ry="105.71429"
         sodipodi:rx="138.57143"
         sodipodi:cy="249.50504"
         sodipodi:cx="421.42856"
         id="path2321"
         style="fill:navy;fill-opacity:1"
         sodipodi:type="arc" />
      <g
         transform="matrix(1,0,0,-1,341.3326,-164.4248)"
         id="g2323">
        <path
           sodipodi:type="arc"
           style="fill:yellow;fill-opacity:1"
           id="path2325"
           sodipodi:cx="-397.14285"
           sodipodi:cy="135.21933"
           sodipodi:rx="62.857143"
           sodipodi:ry="71.428574"
           d="M -334.28571,135.21933 A 62.857143,71.428574 0 1 1 -334.28575,135.13666"
           sodipodi:start="0"
           sodipodi:end="6.2820279"
           sodipodi:open="true"
           transform="matrix(0.795455,0,0,1.05,-146.0909,64.239)" />
        <path
           sodipodi:type="arc"
           style="fill:yellow;fill-opacity:1"
           id="path2327"
           sodipodi:cx="-397.14285"
           sodipodi:cy="135.21933"
           sodipodi:rx="62.857143"
           sodipodi:ry="71.428574"
           d="M -334.28571,135.21933 A 62.857143,71.428574 0 1 1 -334.28572,135.17591 L -397.14285,135.21933 z"
           sodipodi:start="0"
           sodipodi:end="6.2825774"
           transform="matrix(0.795455,0,0,1.05,-36.0907,64.239)" />
      </g>
      <path
         sodipodi:open="true"
         sodipodi:end="6.2820279"
         sodipodi:start="0"
         transform="matrix(0.769231,0,0,0.714286,-431.1792,-279.8405)"
         d="M 402,-127.125 A 39,28 0 1 1 401.99997,-127.15741"
         sodipodi:ry="28"
         sodipodi:rx="39"
         sodipodi:cy="-127.125"
         sodipodi:cx="363"
         id="path2329"
         style="fill:red;fill-opacity:1"
         sodipodi:type="arc" />
      <path
         sodipodi:open="true"
         sodipodi:end="6.2820279"
         sodipodi:start="0"
         transform="matrix(0,0.769231,-0.714286,0,-98.46019,-696.9721)"
         d="M 402,-127.125 A 39,28 0 1 1 401.99997,-127.15741"
         sodipodi:ry="28"
         sodipodi:rx="39"
         sodipodi:cy="-127.125"
         sodipodi:cx="363"
         id="path2335"
         style="fill:green;fill-opacity:1"
         sodipodi:type="arc" />
    </g>
    <g
       id="g2569"
       inkscape:export-filename="/home/lok/pygameLesson/racingKiller/data/sea_nettle3.png"
       inkscape:export-xdpi="18.051762"
       inkscape:export-ydpi="18.051762">
      <path
         transform="matrix(1.082474,0,0,-0.945946,-196.7594,-136.0246)"
         sodipodi:open="true"
         sodipodi:end="6.2820279"
         sodipodi:start="0"
         d="M 559.99998,249.50504 A 138.57143,105.71429 0 1 1 559.99989,249.38268"
         sodipodi:ry="105.71429"
         sodipodi:rx="138.57143"
         sodipodi:cy="249.50504"
         sodipodi:cx="421.42856"
         id="path2350"
         style="fill:red;fill-opacity:1"
         sodipodi:type="arc" />
      <g
         transform="matrix(1,0,0,-1,666.4261,-165.8236)"
         id="g2352">
        <path
           sodipodi:type="arc"
           style="fill:yellow;fill-opacity:1"
           id="path2354"
           sodipodi:cx="-397.14285"
           sodipodi:cy="135.21933"
           sodipodi:rx="62.857143"
           sodipodi:ry="71.428574"
           d="M -334.28571,135.21933 A 62.857143,71.428574 0 1 1 -334.28575,135.13666"
           sodipodi:start="0"
           sodipodi:end="6.2820279"
           sodipodi:open="true"
           transform="matrix(0.795455,0,0,1.05,-146.0909,64.239)" />
        <path
           sodipodi:type="arc"
           style="fill:yellow;fill-opacity:1"
           id="path2356"
           sodipodi:cx="-397.14285"
           sodipodi:cy="135.21933"
           sodipodi:rx="62.857143"
           sodipodi:ry="71.428574"
           d="M -334.28571,135.21933 A 62.857143,71.428574 0 1 1 -334.28572,135.17591 L -397.14285,135.21933 z"
           sodipodi:start="0"
           sodipodi:end="6.2825774"
           transform="matrix(0.795455,0,0,1.05,-36.0907,64.239)" />
      </g>
      <path
         sodipodi:nodetypes="ccczczczccczcsczc"
         id="path2312"
         d="M 175.8889,-275.50613 L 263.55263,-281.53294 L 355.34838,-271.81747 C 355.34838,-271.81747 356.7572,-247.20383 345.03462,-246.91901 C 333.31205,-246.63419 334.70848,-222.01375 334.72084,-222.02055 C 334.72084,-222.02055 307.47883,-226.99803 322.70792,-245.54829 C 337.76723,-263.89179 313.06194,-264.44014 313.06194,-264.44014 C 313.06194,-264.44014 289.50275,-256.46424 300.68545,-243.23035 C 312.04441,-229.78782 280.05138,-224.29066 280.05138,-224.29066 L 262.52452,-267.20664 L 262.53997,-234.08034 C 262.53997,-234.08034 236.99794,-236.54466 231.06754,-249.22442 C 225.13712,-261.90419 219.2067,-274.58396 219.2067,-274.58396 C 219.2067,-274.58396 186.02287,-252.02949 211.05833,-252.66878 C 232.65567,-253.22029 212.00089,-227.19891 212.00089,-227.19891 C 212.00089,-227.19891 202.19875,-247.93048 190.33223,-249.9337 C 179.40513,-251.77833 175.8889,-275.50613 175.8889,-275.50613 z "
         style="fill:#d40000;fill-opacity:1;fill-rule:evenodd;stroke:black;stroke-width:0.48762169px;stroke-linecap:butt;stroke-linejoin:miter;stroke-opacity:1" />
      <path
         sodipodi:nodetypes="ccczczczczczczczczc"
         id="path2316"
         d="M 346.62265,-467.36748 L 264.12738,-461.1639 L 169.24369,-469.41181 C 169.24369,-469.41181 198.13832,-486.89952 179.55654,-495.04051 C 161.61316,-502.90178 189.86936,-520.6692 189.86936,-520.6692 C 189.86936,-520.6692 215.92551,-515.59498 200.69781,-498.83736 C 185.68018,-482.31086 211.52627,-477.00551 211.52627,-477.00551 C 215.65141,-484.28278 238.35588,-492.5948 223.90168,-498.83736 C 208.93548,-505.30102 232.15194,-513.39192 236.27706,-520.6692 C 236.27706,-520.6692 261.54177,-501.20489 249.1681,-497.41353 C 236.00381,-493.37991 262.05911,-474.15787 262.05911,-474.15787 C 262.05911,-474.15787 293.49589,-477.39383 271.8563,-496.46431 C 249.9204,-515.79594 281.65349,-518.77079 281.65349,-518.77079 C 281.65349,-518.77079 304.09691,-507.47165 293.51324,-492.66748 C 283.28741,-478.36386 305.37299,-466.56418 305.37299,-466.56418 C 305.37299,-466.56418 329.84908,-467.366 329.10144,-481.31276 C 328.32248,-495.84316 306.38558,-505.99226 306.38558,-505.99226 C 306.38558,-505.99226 323.66952,-505.53675 339.40531,-490.76906 C 354.68714,-476.42741 346.62265,-467.36748 346.62265,-467.36748 z "
         style="fill:#d40000;fill-rule:evenodd;stroke:black;stroke-width:0.49469814px;stroke-linecap:butt;stroke-linejoin:miter;stroke-opacity:1" />
      <path
         sodipodi:open="true"
         sodipodi:end="6.2820279"
         sodipodi:start="0"
         transform="matrix(0,-0.769231,-0.714286,0,113.2175,-141.0559)"
         d="M 402,-127.125 A 39,28 0 1 1 401.99997,-127.15741"
         sodipodi:ry="28"
         sodipodi:rx="39"
         sodipodi:cy="-127.125"
         sodipodi:cx="363"
         id="path2358"
         style="fill:navy;fill-opacity:1"
         sodipodi:type="arc" />
      <path
         sodipodi:open="true"
         sodipodi:end="6.2820279"
         sodipodi:start="0"
         transform="matrix(0,0.769231,-0.714286,0,228.2878,-600.7532)"
         d="M 402,-127.125 A 39,28 0 1 1 401.99997,-127.15741"
         sodipodi:ry="28"
         sodipodi:rx="39"
         sodipodi:cy="-127.125"
         sodipodi:cx="363"
         id="path2360"
         style="fill:purple;fill-opacity:1"
         sodipodi:type="arc" />
    </g>
    <g
       id="g2579"
       inkscape:export-filename="/home/lok/pygameLesson/racingKiller/data/sea_nettle4.png"
       inkscape:export-xdpi="18.055672"
       inkscape:export-ydpi="18.055672">
      <path
         sodipodi:nodetypes="ccczczczccczcsczc"
         id="path2277"
         d="M 493.8907,-467.15477 L 581.55443,-461.12796 L 673.35018,-470.84343 C 673.35018,-470.84343 674.759,-495.45707 663.03642,-495.74189 C 651.31385,-496.02671 652.71028,-520.64715 652.72264,-520.64035 C 652.72264,-520.64035 625.48063,-515.66287 640.70972,-497.11261 C 655.76903,-478.76911 631.06374,-478.22076 631.06374,-478.22076 C 631.06374,-478.22076 607.50455,-486.19666 618.68725,-499.43055 C 630.04621,-512.87308 598.05318,-518.37024 598.05318,-518.37024 L 580.52632,-475.45426 L 580.54177,-508.58056 C 580.54177,-508.58056 554.99974,-506.11624 549.06934,-493.43648 C 543.13892,-480.75671 537.2085,-468.07694 537.2085,-468.07694 C 537.2085,-468.07694 504.02467,-490.63141 529.06013,-489.99212 C 550.65747,-489.44061 530.00269,-515.46199 530.00269,-515.46199 C 530.00269,-515.46199 520.20055,-494.73042 508.33403,-492.7272 C 497.40693,-490.88257 493.8907,-467.15477 493.8907,-467.15477 z "
         style="fill:#d40000;fill-opacity:1;fill-rule:evenodd;stroke:black;stroke-width:0.48762169px;stroke-linecap:butt;stroke-linejoin:miter;stroke-opacity:1" />
      <path
         sodipodi:nodetypes="ccczczczczczczczczc"
         id="path2294"
         d="M 493.79478,-275.3582 L 576.29005,-281.56177 L 671.17374,-273.31387 C 671.17374,-273.31387 642.27911,-255.82616 660.86089,-247.68517 C 678.80427,-239.8239 650.54807,-222.05648 650.54807,-222.05648 C 650.54807,-222.05648 624.49192,-227.13069 639.71962,-243.88832 C 654.73725,-260.41481 628.89116,-265.72017 628.89116,-265.72017 C 624.76602,-258.44289 602.06155,-250.13088 616.51575,-243.88832 C 631.48195,-237.42466 608.26549,-229.33376 604.14037,-222.05648 C 604.14037,-222.05648 578.87566,-241.52078 591.24933,-245.31215 C 604.41362,-249.34577 578.35832,-268.5678 578.35832,-268.5678 C 578.35832,-268.5678 546.92154,-265.33184 568.56113,-246.26136 C 590.49703,-226.92974 558.76394,-223.95489 558.76394,-223.95489 C 558.76394,-223.95489 536.32052,-235.25403 546.90419,-250.0582 C 557.13002,-264.36182 535.04444,-276.1615 535.04444,-276.1615 C 535.04444,-276.1615 510.56835,-275.35967 511.31599,-261.41292 C 512.09495,-246.88252 534.03185,-236.73342 534.03185,-236.73342 C 534.03185,-236.73342 516.74791,-237.18893 501.01212,-251.95662 C 485.73029,-266.29827 493.79478,-275.3582 493.79478,-275.3582 z "
         style="fill:#d40000;fill-rule:evenodd;stroke:black;stroke-width:0.49469811px;stroke-linecap:butt;stroke-linejoin:miter;stroke-opacity:1" />
      <path
         transform="matrix(1.082474,0,0,-0.945946,128.111,-134.0195)"
         sodipodi:open="true"
         sodipodi:end="6.2820279"
         sodipodi:start="0"
         d="M 559.99998,249.50504 A 138.57143,105.71429 0 1 1 559.99989,249.38268"
         sodipodi:ry="105.71429"
         sodipodi:rx="138.57143"
         sodipodi:cy="249.50504"
         sodipodi:cx="421.42856"
         id="path2371"
         style="fill:purple;fill-opacity:1"
         sodipodi:type="arc" />
      <g
         transform="matrix(1,0,0,-1,991.2965,-163.8185)"
         id="g2373">
        <path
           sodipodi:type="arc"
           style="fill:yellow;fill-opacity:1"
           id="path2375"
           sodipodi:cx="-397.14285"
           sodipodi:cy="135.21933"
           sodipodi:rx="62.857143"
           sodipodi:ry="71.428574"
           d="M -334.28571,135.21933 A 62.857143,71.428574 0 1 1 -334.28575,135.13666"
           sodipodi:start="0"
           sodipodi:end="6.2820279"
           sodipodi:open="true"
           transform="matrix(0.795455,0,0,1.05,-146.0909,64.239)" />
        <path
           sodipodi:type="arc"
           style="fill:yellow;fill-opacity:1"
           id="path2377"
           sodipodi:cx="-397.14285"
           sodipodi:cy="135.21933"
           sodipodi:rx="62.857143"
           sodipodi:ry="71.428574"
           d="M -334.28571,135.21933 A 62.857143,71.428574 0 1 1 -334.28572,135.17591 L -397.14285,135.21933 z"
           sodipodi:start="0"
           sodipodi:end="6.2825774"
           transform="matrix(0.795455,0,0,1.05,-36.0907,64.239)" />
      </g>
      <path
         sodipodi:open="true"
         sodipodi:end="6.2820279"
         sodipodi:start="0"
         transform="matrix(-0.769231,0,0,-0.714286,835.4,-462.496)"
         d="M 402,-127.125 A 39,28 0 1 1 401.99997,-127.15741"
         sodipodi:ry="28"
         sodipodi:rx="39"
         sodipodi:cy="-127.125"
         sodipodi:cx="363"
         id="path2379"
         style="fill:green;fill-opacity:1"
         sodipodi:type="arc" />
      <path
         sodipodi:open="true"
         sodipodi:end="6.2820279"
         sodipodi:start="0"
         transform="matrix(-0.769231,0,0,-0.714286,896.618,-457.5323)"
         d="M 402,-127.125 A 39,28 0 1 1 401.99997,-127.15741"
         sodipodi:ry="28"
         sodipodi:rx="39"
         sodipodi:cy="-127.125"
         sodipodi:cx="363"
         id="path2381"
         style="fill:red;fill-opacity:1"
         sodipodi:type="arc" />
    </g>
  </g>
</svg>
